<?xml version="1.0" encoding="utf-8"?>
<!-- Generator: Adobe Illustrator 18.1.1, SVG Export Plug-In . SVG Version: 6.00 Build 0)  -->
<svg version="1.1" id="Layer_1" xmlns="http://www.w3.org/2000/svg" xmlns:xlink="http://www.w3.org/1999/xlink" x="0px" y="0px"
	 viewBox="-201 380 208 33" enable-background="new -201 380 208 33" xml:space="preserve">
<g>
	<path fill="#FFCD00" d="M-76,400.6c0.2-0.3,0.4-0.6,0.7-1c0.4-0.6,0.7-1,1-1.5c0.3-0.5,0.7-0.9,1.3-1.6h-2.5l-0.3,0.6h0.4
		c0.3,0,0.4,0.1,0.4,0.2c0,0.1,0,0.5-0.3,0.9l-1.5,2.2l-2.2-3.9h-0.1h-1.9h-5.9l-0.2,1.8h0.7l0.1-0.4c0-0.2,0.1-0.3,0.3-0.5
		c0.4-0.3,1.3-0.3,2.1-0.3v6.7c0,0.3,0,0.5-0.1,0.8c-0.1,0.1-0.1,0.3-0.3,0.5h2.7l0.2-0.6h-0.4c-0.3,0-0.5-0.1-0.7-0.3
		c-0.1-0.1-0.1-0.3-0.1-0.5v-6.5c0.4,0,1.8,0,2.1,0.2c0.4,0.3,0.9,1.1,0.9,1.1c0.2,0.3,0.4,0.6,0.6,0.9c0.5,0.8,0.9,1.4,1.1,2.1v2.2
		c0,0.3,0,0.6-0.1,0.9c-0.1,0.2-0.2,0.3-0.3,0.5h2.7l0.2-0.6h-0.4c-0.3,0-0.5-0.1-0.7-0.2c-0.1-0.1-0.1-0.3-0.1-0.6c0,0,0-2,0-2.3
		C-76.3,401.1-76.2,400.8-76,400.6z"/>
	<path fill="#FFCD00" d="M-93.4,400.1l-0.9-0.4c-0.9-0.4-1.7-0.8-1.5-1.6c0.2-1.5,3.4-1.6,3.1,0.2h0.8l0.4-1.7
		c-0.7-0.2-1.5-0.3-2.3-0.3c-1.8,0-3.5,0.9-3.3,2.3c0.1,1,1,1.5,2,2l0.9,0.4c1,0.5,1.8,0.9,1.8,1.7c0,1-0.9,1.6-2.1,1.6
		c-1.7,0-2.2-0.5-2.2-0.5c0,0-3.2-3.5-3.2-3.5c1.2-0.2,2.1-1.1,2.1-2.2c0-1.4-1.6-1.9-2.9-1.8l-3.5,0l-0.2,0.6h0.3
		c0.2,0,0.4,0,0.5,0.2c0.2,0.2,0.2,0.7,0.2,1.3v5.4c0,0.4-0.1,0.7-0.4,1.1h2.5l0.2-0.6h-0.4c-0.5,0-0.7-0.3-0.7-0.7l0-6.6
		c1.4-0.2,2.8,0.2,2.8,1.4c0,1-1,1.6-2.5,1.7l4.2,4.8c0,0,2.3,0.2,3,0.2c2,0,3.6-1.1,3.6-2.8C-91.1,401.1-92.2,400.6-93.4,400.1z"/>
	<path fill="#FFCD00" d="M-168,395.5h-0.8l0.1-0.4c0.1-0.5,0-0.8-0.3-1.2c-0.4-0.4-1.9-0.4-2.9-0.4v9.6c0,0.4,0,0.7,0.2,0.9
		c0.3,0.3,0.6,0.4,1,0.4h0.4l-0.2,0.6h-3.2c0.1-0.2,0.2-0.3,0.3-0.5c0.1-0.4,0.2-0.7,0.2-1.2l0-9.8c-1,0-2.4,0-3,0.4
		c-0.3,0.3-0.5,0.5-0.5,0.8l-0.1,0.5h-0.8l0.3-2.4h9.9L-168,395.5z"/>
	<path fill="#FFCD00" d="M-159.3,405h-2.4c0.2-0.4,0.2-0.6,0.2-1v-3.6c-0.4,0.3-0.8,0.3-1.2,0.3c-0.4,0-0.8,0-1.3,0.1
		c-0.7,0.1-1.1,0.1-1.9,0v2.9c0,0.5,0.2,0.7,0.7,0.7h0.3l-0.2,0.6h-2.5c0.2-0.4,0.3-0.7,0.3-1.1c0-0.2,0-0.3,0-0.5v-5.2
		c0-0.3,0.1-0.8-0.1-1c-0.1-0.1-0.3-0.1-0.6-0.1h-0.3l0.2-0.6h2.3c-0.1,0.2-0.1,0.2-0.1,0.3c0,0.2-0.1,0.9-0.1,1.1v2.1h4.3l0-1.8
		c0-0.3,0-0.8-0.2-1c-0.1-0.1-0.3-0.2-0.6-0.2h-0.3l0.3-0.6h2.3c-0.1,0.2-0.1,0.2-0.1,0.3c-0.1,0.3-0.1,0.9-0.1,1.1v5.8
		c0,0.5,0.2,0.7,0.7,0.7h0.4L-159.3,405z"/>
	<path fill="#FFCD00" d="M-152.2,405l-6.1,0c0.1-0.2,0.3-0.3,0.3-0.5c0.1-0.3,0.1-0.6,0.1-1v-4.9c0-0.3,0-1-0.1-1.2
		c-0.1-0.2-0.3-0.3-0.6-0.3h-0.3l0.2-0.6c0,0,6,0,6.3,0l-0.3,1.9h-0.8c0-0.5,0-0.7-0.3-1c-0.3-0.3-1.1-0.3-1.8-0.3
		c-0.4,0-0.7,0-1,0.1v2.9h3.4c-0.2,0.6-0.7,0.7-1.3,0.8c-0.3,0-0.5,0-0.8,0.1c-0.5,0-0.9,0-1.4,0v2.5c0,0.3,0.1,0.6,0.2,0.7
		c0.2,0.2,0.8,0.2,1.4,0.2c0.7,0,1.2,0,1.6-0.4c0.3-0.3,0.4-0.5,0.5-0.9h0.9L-152.2,405z"/>
	<path fill="#FFCD00" d="M-135.3,405h-2.8l0-1.1c-1.9,1-3.7,1.7-5.8,1.1c-2.4-0.7-2.3-3.6-2.3-6.1c0-1.9,0.5-4.3,0.1-4.9
		c-0.2-0.3-0.5-0.5-0.9-0.5h-0.3l0.1-0.6h3c-0.1,0.2-0.2,0.4-0.2,0.6c-0.2,0.8-0.5,3.6-0.5,5.7c0,2.3,0.2,4.3,2.1,4.8
		c1.7,0.5,3.1,0,4.4-0.9V395c0-0.5,0-0.9-0.4-1.2c-0.3-0.2-0.5-0.3-0.9-0.3h-0.2l0.1-0.6h3c-0.1,0.3-0.2,0.4-0.3,0.7
		c-0.1,0.5-0.1,0.8-0.1,1.3v7.7c0,0.6,0,1.1,0.5,1.5c0.3,0.2,0.5,0.3,0.9,0.3h0.2L-135.3,405z"/>
	<path fill="#FFCD00" d="M-126.3,397.1c-0.1,0.2-0.1,1-0.1,1.3l0,6.6h-1.1c0-0.4-0.1-0.4-0.3-0.7c-0.2-0.3-0.3-0.5-0.5-0.7l-4.7-5.5
		v4.8c0,0.5,0.1,1.1,0.2,1.3c0.2,0.2,0.4,0.3,0.6,0.3l0.3,0l-0.2,0.6h-2.4c0.2-0.2,0.3-0.4,0.4-0.6c0.2-0.5,0.2-0.7,0.2-1.2l0-4.9
		c0-0.3,0-0.8-0.2-1.1c-0.1-0.1-0.3-0.2-0.6-0.2h-0.3l0.2-0.6h2.4c0.1,0.4,0.4,0.7,0.8,1.2l4.3,5v-4.3c0-0.5,0-1-0.2-1.2
		c-0.1-0.1-0.3-0.2-0.6-0.2h-0.3l0.2-0.6h2.2C-126.2,396.7-126.3,397-126.3,397.1z"/>
	<path fill="#FFCD00" d="M-121.7,405h-2.7c0.1-0.1,0.2-0.3,0.3-0.4c0.1-0.3,0.1-0.5,0.1-0.8v-5.9c0-0.3,0-0.5-0.1-0.6
		c-0.1-0.1-0.3-0.2-0.5-0.2h-0.3l0.2-0.6h2.4c-0.1,0.1-0.2,0.3-0.3,0.4c-0.1,0.2-0.1,0.7-0.1,1.1v5.6c0,0.2,0.1,0.5,0.1,0.6
		c0.2,0.2,0.3,0.2,0.7,0.2h0.4L-121.7,405z"/>
	<path fill="#FFCD00" d="M-113.9,398.7c-0.3,0.7-0.6,1.4-1,2.3c-0.7,1.5-1.3,3.2-1.4,4.2h-1.1c-0.1-0.8-0.9-2.7-1.5-4.4
		c-0.5-1.3-1.4-3-1.7-3.3c-0.2-0.2-0.4-0.4-0.7-0.4h-0.3l0.2-0.5l2.2,0l2.6,6.5l2-4.7c0.1-0.4,0.2-0.7,0.1-0.9
		c-0.1-0.2-0.3-0.3-0.5-0.3h-0.3l0.1-0.5h2.6C-113.2,397.4-113.6,398-113.9,398.7z"/>
	<path fill="#FFCD00" d="M-105.4,405l-6.1,0c0.1-0.2,0.3-0.3,0.3-0.5c0.1-0.3,0.1-0.6,0.1-1v-4.9c0-0.3,0-1-0.1-1.2
		c-0.1-0.2-0.3-0.3-0.6-0.3h-0.3l0.2-0.6c0,0,6,0,6.3,0l-0.3,1.9h-0.8c0-0.5,0-0.7-0.3-1c-0.3-0.3-1.1-0.3-1.8-0.3
		c-0.4,0-0.7,0-1,0.1v2.9h3.4c-0.2,0.6-0.7,0.7-1.3,0.8c-0.3,0-0.5,0-0.8,0.1c-0.5,0-0.9,0-1.4,0v2.5c0,0.3,0.1,0.6,0.2,0.7
		c0.2,0.2,0.8,0.2,1.4,0.2c0.7,0,1.2,0,1.6-0.4c0.3-0.3,0.4-0.5,0.5-0.9h0.9L-105.4,405z"/>
	<path fill="#FFCD00" d="M-87.2,405h-2.7c0.1-0.1,0.2-0.3,0.3-0.4c0.1-0.3,0.1-0.5,0.1-0.8v-5.9c0-0.3,0-0.5-0.1-0.6
		c-0.1-0.1-0.3-0.2-0.5-0.2h-0.3l0.2-0.6h2.4c-0.1,0.1-0.2,0.3-0.3,0.4c-0.1,0.2-0.1,0.7-0.1,1.1v5.6c0,0.2,0.1,0.5,0.1,0.6
		c0.2,0.2,0.3,0.2,0.7,0.2h0.4L-87.2,405z"/>
	<path fill="#FFCD00" d="M-61.2,400.2c0.4,1.9-0.6,3.9-2.6,4.2c-2.1,0.4-3.7-1.2-4.1-3.1c-0.4-1.9,0.4-3.9,2.5-4.3
		C-63.3,396.7-61.5,398.3-61.2,400.2z M-59.6,400.2c-0.3-2.5-2.5-4.2-5.5-3.8c-2.9,0.4-4.6,2.4-4.2,5c0.3,2.5,2.3,4.1,5.3,3.7
		C-61.1,404.8-59.3,402.7-59.6,400.2z"/>
	<path fill="#FFCD00" d="M-53.3,398.4h-0.8c0-0.4,0-0.7-0.3-1c-0.2-0.3-0.9-0.3-1.6-0.3c-0.4,0-0.7,0-1,0.1v2.9h3.4
		c-0.1,0.2-0.2,0.5-0.4,0.6c-0.3,0.1-0.9,0.2-1.6,0.2c-0.5,0-0.9,0-1.4,0v2.7c0,0.3,0.1,0.6,0.2,0.7c0.1,0.1,0.3,0.2,0.6,0.2
		c0.1,0,0.3,0,0.4,0c-0.1,0.3-0.2,0.6-0.2,0.6h-2.8c0.1-0.2,0.3-0.3,0.3-0.5c0.1-0.3,0.1-0.6,0.1-1v-4.9c0-0.3,0-1-0.1-1.3
		c-0.1-0.2-0.3-0.3-0.6-0.3h-0.3l0.2-0.6c0,0,5.8,0,6.1,0L-53.3,398.4z"/>
	<path fill="#FFCD00" d="M-44.5,405h-3.2c0.1-0.2,0.2-0.3,0.3-0.5c0.1-0.4,0.2-0.7,0.2-1.2l0-8.5c0-0.4,0-0.7-0.2-1
		c-0.2-0.2-0.4-0.3-0.8-0.3h-0.2l0.2-0.6h2.9c-0.1,0.1-0.2,0.2-0.3,0.4c-0.2,0.4-0.2,1-0.2,1.7v8.1c0,0.3,0,0.7,0.2,0.9
		c0.3,0.3,0.6,0.4,1,0.4h0.4L-44.5,405z"/>
	<path fill="#FFCD00" d="M-36,400.2c0.4,1.9-0.6,3.9-2.6,4.2c-2.1,0.4-3.7-1.2-4.1-3.1c-0.4-1.9,0.4-3.9,2.5-4.3
		C-38.1,396.7-36.3,398.3-36,400.2z M-34.4,400.2c-0.3-2.5-2.5-4.2-5.5-3.8c-2.9,0.4-4.6,2.4-4.2,5c0.3,2.5,2.3,4.1,5.3,3.7
		C-35.9,404.8-34.1,402.7-34.4,400.2z"/>
	<path fill="#FFCD00" d="M-22.7,398.7c-0.3,0.7-0.6,1.4-1,2.2c-0.7,1.5-1.1,3.2-1.2,4.2H-26c-0.1-0.8-0.8-2.5-1.4-4.2
		c-0.1-0.3-0.2-0.7-0.4-1c-0.2,0.3-0.3,0.6-0.6,1.3c-0.6,1.5-1.1,2.9-1.1,3.8h-1.1c-0.1-0.8-0.9-2.7-1.5-4.4c-0.5-1.3-1.4-3-1.7-3.3
		c-0.2-0.2-0.4-0.4-0.7-0.4h-0.3l0.2-0.6h2.2l2.5,6.5c0.4-0.8,1.7-3.9,1.7-3.9c-0.3-0.8-0.7-1.5-0.8-1.6c-0.2-0.2-0.4-0.4-0.7-0.4
		H-30l0.2-0.6h2.2c0.7,1.8,1.7,4.8,2.3,6.4l1.8-4.5c0.1-0.4,0.3-0.9,0.2-1c-0.1-0.2-0.3-0.3-0.5-0.3h-0.3l0.2-0.6h2.6
		C-22,397.4-22.4,398-22.7,398.7z"/>
	<path fill="#FFCD00" d="M-18.1,401.1c-0.9,0.1-1.6,0-2.5-0.1l1.3-3.1L-18.1,401.1z M-14.3,404.4h-0.3c-0.3,0-0.5-0.2-0.7-0.4
		c-0.3-0.3-1-2-1.5-3.3c-0.7-1.7-1.3-3.5-1.5-4.3h-1.9c0.4,0.9-0.3,2.7-1,4.1c-0.8,1.8-1.2,2.8-2.5,4.5h2.8l0.2-0.6h-0.3
		c-0.3,0-0.5-0.1-0.6-0.3c-0.1-0.2,0-0.5,0.2-0.9l0.5-1.3h2c0.4,0,0.8-0.1,1.1-0.4l1.3,3.5h2.1L-14.3,404.4z"/>
</g>
<g>
	<path fill="#FFCD00" d="M-188.6,385.9c0,0.3,0,0.8,0.1,0.9c0.4,0.3,1.1,0.5,1.4,0.8c0.1,0.1,0,0.6-0.2,0.5c-1.1-0.3-1.2-0.2-2-0.2
		c-0.1,0-0.2-0.4-0.3-0.6c0-0.1,0.2-0.3,0.3-0.5c0.1-0.4,0-2.2,0.1-3.5c0-0.3,0-0.4,0.3-0.4c0.2,0,0.3,0.2,0.3,0.4
		C-188.7,384.1-188.6,385-188.6,385.9z"/>
	<path fill="#FFCD00" d="M-189.3,383.1c0-0.3,0.3-0.4,0.5-0.3"/>
	<path fill="#FFCD00" d="M-187.2,387.5c0.2,0.2,0,0.6-0.3,0.5c-0.6-0.2-1.2-0.1-1.8-0.2c-0.2,0-0.2-0.3-0.2-0.5"/>
	<path fill="#FFCD00" d="M-188.7,384.1c0,0.8,0,1.6,0,2.4c0,0.1,0.1,0.2,0.1,0.3"/>
	<path fill="#FFCD00" d="M-184,395.4c0.1,0,0.7-0.1,1,0c0.1,0,0.1,0.1,0.2,0.1c0.1,0.1,0.1,0.5,0.1,0.7c0,0.3-0.2,0.4-0.2,0.7
		c0,2,0.1,4.3,0,4.8c-0.2,0.7-0.2,0.8-0.4,0.8c-0.1,0-0.2,0-0.2-0.3c0-0.2-0.1-0.5-0.1-0.8c0-0.8,0-2.9,0-3.8c0-0.7-0.2-0.8-0.3-0.8
		c-0.1-0.1-0.2-0.1-0.2-0.2c0-0.3,0-0.9,0.1-1.1C-184.1,395.5-184.1,395.4-184,395.4z"/>
	<path fill="#FFCD00" d="M-182.5,394.3"/>
	<path fill="#FFCD00" d="M-182.5,404.2c-0.7,0-1.7,0-1.9-0.1c-0.1-0.1-0.1-0.3-0.1-0.7c-0.1-2.5,0-5,0-7.5c0-0.2-0.1-0.6-0.4-0.6
		c-0.4,0-1.1,0-1.2,0c-0.1,0-0.1,0.1-0.1,0.1c-0.1,0.2-0.2,0.8-0.2,1.1c0,0.1,0.1,0.2,0.2,0.2c0.4,0.1,0.6,0.3,0.6,0.8
		c0,1.9,0.1,5.6-0.2,6.2c-0.1,0.3-0.7,0.5-0.8,0.2c-0.1-0.2-0.1-5.8-0.1-8.1c0-0.4-0.1-0.6-0.6-0.6c-0.6,0-1.1,0-1.6,0
		c0,0-0.1,0-0.2,0.1c-0.1,0.3-0.2,1.1-0.1,1.2c0,0,0,0.1,0.2,0.1c0.7,0.1,1.1,0.4,1.1,1.2c0,1.2,0.2,5.6-0.3,6.1
		c-0.2,0.2-1,0.2-1.2,0.1c-0.1,0-0.2-0.1-0.2-0.3c-0.1-1.3,0.1-8-0.1-8.3c-0.1-0.1-0.1-0.2-0.2-0.2c-0.2-0.1-1.2,0-1.4-0.1
		c0,0-0.1,0-0.1-0.1c0-0.2,0-0.5,0.1-0.7c0-0.1,0.2-0.1,0.2-0.1c2.9,0,7.1,0,8.6,0c0.1,0,0.3,0,0.3-0.2c0.1-0.2,0.1-0.6,0.1-0.8
		c0-0.1-0.1-0.1-0.2-0.1c-0.2,0-6.5,0-9.8-0.1c-0.2,0-0.5,0-0.5-0.1c0-0.2,0-0.5,0-0.6c0.3-0.6,0.6-0.5,0.8-1.4
		c0.1-0.6-0.1-1,0.2-1.5c0.4-0.6,0.6-0.8,0.9-1.2c0.2-0.3-0.2-0.7-0.5-0.6c-0.2,0.1-1.5,1-2.3,2.2c-0.6,1-0.8,2-1.2,3
		c-0.1,0.3-0.2,0.3-0.7,0.4c-0.3,0-0.4,0.9-0.2,1c0,0,0.1,0,0.1,0c0.4,0.1,0.5,0.5,0.5,1c0,0,0.1,7.5-0.1,8.3
		c-0.2,0.6-0.3,0.5-0.4,0.6c0,0-0.1,0-0.1,0.1c-0.1,0.2-0.1,0.5-0.1,0.7c0,0.1,0,0.1,0.1,0.1c5,0,10.8,0,12.9,0c0.1,0,0.2,0,0.2-0.2
		c0.1-0.2,0.1-0.5,0.1-0.6C-182.3,404.2-182.4,404.2-182.5,404.2z M-193.6,404c-0.2,0.3-0.5,0.4-0.5,0c0-2.1,0-6.4,0-6.6
		c0.1-0.2,0.4-0.4,0.5,0C-193.3,397.9-193.2,403.5-193.6,404z M-191.3,403.9c-0.2,0.3-0.7,0.4-0.9,0.1c-0.2-0.5-0.1-6.9-0.1-7
		c0-0.3,0.5-0.2,0.7-0.1c0.4,0.3,0.4,0.5,0.5,1.1C-191,399.7-190.9,403.5-191.3,403.9z"/>
</g>
</svg>
